<?xml version="1.0" encoding="utf-8"?>
<!-- Generator: Adobe Illustrator 19.0.0, SVG Export Plug-In . SVG Version: 6.00 Build 0)  -->
<svg version="1.1" id="Capa_1" xmlns="http://www.w3.org/2000/svg" xmlns:xlink="http://www.w3.org/1999/xlink" x="0px" y="0px"
	 viewBox="0 0 268.1 323.5" style="enable-background:new 0 0 268.1 323.5;" xml:space="preserve">
<style type="text/css">
	.st0{fill:#3E1151;}
	.st1{fill:#F7323F;}
</style>
<g>
	<g>
		<g>
			<path class="st0" d="M155,200.9c-0.6,0-1.1,0-1.6-0.1c-8.3-0.5-15.2-4.8-19.6-11.4c-5,6.9-13,10.1-20.4,10.2
				c-7.8,0.1-16.3-3.4-21.5-10.8c-5.7,8.9-15.3,12.4-24,11.7c-7.7-0.6-15.4-4.7-20-11.6c-4.5,6.7-11.1,10.6-18.9,11.1
				c-11.4,0.7-22.4-6.6-25.7-17c-0.2-0.5-0.2-1-0.2-1.5V151c0-1.3,0.5-2.6,1.5-3.5l51.4-51.4c0.9-0.9,2.2-1.5,3.5-1.5h55.2
				c2.8,0,5,2.2,5,5s-2.2,5-5,5H61.4L13,153.1v27.7c2.2,5.7,8.8,9.8,15.3,9.4c7.8-0.5,13.5-7,15.5-17.9c0.5-2.6,2.9-4.4,5.5-4
				c2.6,0.3,4.5,2.6,4.4,5.3c-0.6,10.9,7.3,16.6,14.9,17.2c7.4,0.6,16.7-3.6,18.1-17.6c0.3-2.6,2.5-4.6,5-4.5c2.6,0,4.7,2,4.9,4.6
				c0.9,11.5,9,16.5,16.5,16.5c7.3-0.1,15-5,15.6-15.9c0.2-2.6,2.3-4.7,5-4.7s4.8,2.1,5,4.7c0.6,11.2,8.1,16.6,15.1,17.1
				c7.3,0.5,16.9-4.2,19.7-19.1c0.5-2.5,2.7-4.2,5.3-4.1c2.5,0.2,4.5,2.2,4.6,4.8c0.6,12.7,8.9,17.2,15.9,17.3c0.1,0,0.1,0,0.2,0
				c7.7,0,16.2-5.3,17-16.9c0.2-2.6,2.3-4.6,4.9-4.7c2.6-0.1,4.8,1.9,5.1,4.5c1.4,13.1,9.7,17.4,16.3,17c5.9-0.3,12.3-4.5,12.3-12.9
				l-0.4-26.2l-45.9-45.9h-46.5c-2.8,0-5-2.2-5-5s2.2-5,5-5h48.6c1.3,0,2.6,0.5,3.5,1.5l48.8,48.8c0.9,0.9,1.4,2.2,1.5,3.5l0.4,28.3
				c0,14.3-10.9,22.4-21.7,23c-7.8,0.4-16.4-3.1-21.8-11.2c-5.3,7.6-13.9,11.5-22.2,11.4c-7.9-0.1-16.4-3.9-21.4-11.8
				C172.1,196.9,163.3,200.9,155,200.9z"/>
		</g>
		<g>
			<path class="st0" d="M260.1,158.2H36.3c-2.8,0-5-2.2-5-5c0-2.8,2.2-5,5-5h223.8c2.8,0,5,2.2,5,5
				C265.1,156,262.9,158.2,260.1,158.2z"/>
		</g>
		<g>
			<path class="st0" d="M244.6,320.4H27.5c-2.8,0-5-2.2-5-5V195.1c0-2.8,2.2-5,5-5c2.8,0,5,2.2,5,5v115.2h207.1V195.1
				c0-2.8,2.2-5,5-5s5,2.2,5,5v120.2C249.6,318.1,247.3,320.4,244.6,320.4z"/>
		</g>
		<g>
			<path class="st0" d="M97,320.4c-2.8,0-5-2.2-5-5V190.1c0-2.8,2.2-5,5-5c2.8,0,5,2.2,5,5v125.2C102,318.1,99.8,320.4,97,320.4z"/>
		</g>
		<g>
			<path class="st0" d="M81.8,265.6c-2.8,0-5-2.2-5-5v-20.1c0-2.8,2.2-5,5-5c2.8,0,5,2.2,5,5v20.1C86.8,263.3,84.6,265.6,81.8,265.6
				z"/>
		</g>
		<g>
			<path class="st0" d="M244.6,278.3H98.4c-2.8,0-5-2.2-5-5c0-2.8,2.2-5,5-5h146.2c2.8,0,5,2.2,5,5
				C249.6,276,247.3,278.3,244.6,278.3z"/>
		</g>
		<g>
			<path class="st0" d="M165.7,247.6c-8.9,0-16.2-7.3-16.2-16.2c0-8.9,7.3-16.2,16.2-16.2c8.9,0,16.2,7.3,16.2,16.2
				C181.9,240.3,174.6,247.6,165.7,247.6z M165.7,225.1c-3.4,0-6.2,2.8-6.2,6.2c0,3.4,2.8,6.2,6.2,6.2c3.4,0,6.2-2.8,6.2-6.2
				C171.9,227.9,169.1,225.1,165.7,225.1z"/>
		</g>
		<g>
			<path class="st0" d="M183.1,278.3H150c-2.8,0-5-2.2-5-5v-12.1c0-8.6,7-15.7,15.7-15.7h12c8.5,0,15.4,6.9,15.4,15.4v12.4
				C188.1,276,185.9,278.3,183.1,278.3z M155,268.3h23.1v-7.4c0-3-2.4-5.4-5.4-5.4h-12c-3.1,0-5.7,2.5-5.7,5.7V268.3z"/>
		</g>
	</g>
	<g>
		<path class="st1" d="M167.1,11.7c-16-11.1-38.7-11.4-55.1-0.8C95.9,21.3,89.1,40.2,93.3,62.6c0.1,0.3,0.1,0.6,0.2,0.9
			c9.9,25.7,23.2,48,40.6,68.2c1,1.1,2.3,1.7,3.8,1.7c0,0,0,0,0,0c1.5,0,2.8-0.7,3.8-1.8c19.7-23.3,33.4-45.6,41.8-68.2
			c0.1-0.2,0.1-0.4,0.2-0.7C188.6,41,182.5,22.4,167.1,11.7z M138.1,77.1c-14.1,0-25.6-11.5-25.6-25.6s11.5-25.6,25.6-25.6
			c14.1,0,25.6,11.5,25.6,25.6S152.2,77.1,138.1,77.1z"/>
	</g>
</g>
</svg>
